
<svg xmlns="http://www.w3.org/2000/svg" version="1.1" xmlns:xlink="http://www.w3.org/1999/xlink" preserveAspectRatio="none" x="0px" y="0px" width="600px" height="600px" viewBox="0 0 600 600">
<defs>
<g id="Layer0_0_FILL">
<path fill="#FF647E" fill-opacity="0.8980392156862745" stroke="none" d="
M 563.8 321.45
Q 563.8 255.85 531.75 203.5 517.35 180 496.55 159.2 429.35 92.05 334.35 92.05 239.3 92.05 172.1 159.2 159.5 171.85 149.2 185.45 104.95 244.3 104.95 321.45 104.95 398.65 149.2 457.4 153.85 463.55 159 469.5 165.2 476.75 172.1 483.65 239.3 550.9 334.35 550.9 429.35 550.9 496.55 483.65 503.5 476.75 509.75 469.5 522.15 455.1 531.75 439.45 563.8 387.1 563.8 321.45 Z"/>
</g>

<g id="Layer0_1_FILL">
<path fill="#323741" stroke="none" d="
M 525.5 122.1
Q 516.1 116.05 505.25 113 501.15 112 496.9 111.5 463.05 107.65 440.05 116.05 430.2 92.9 409.7 80.6 388.95 68.15 366.05 58.05 366.8 55.3 369.9 54.55 377.55 52.55 380.05 50.05 366.85 47.45 355.15 51.3 338.7 56.7 337.05 43.05 342.4 35.9 351.9 32.6 352.05 32.55 352.05 32.05 352.55 32.05 352.7 31.8 354.5 29.1 347.05 30.05 347.05 30.55 347.05 31.05 336.95 32.45 329.05 36 322.15 39.15 315.5 41.55 303.85 45.8 295.45 40.4 272.6 25.65 242.05 32.05 253.65 34.45 261.3 40.75 273.9 51 257.05 54.05 256.55 54.05 256.05 54.05 252.05 54.05 248.05 54.05 245.05 54.05 242.6 52.9 231.1 47.5 215.05 46.05 215.05 46.55 215.25 46.65 219.85 49.25 222.05 59.05 221.75 62.25 219.55 63.8 206.6 72.6 192.25 80.45 175.85 89.35 167.05 105.6 162.85 113.35 153.7 114.25 142.65 112.15 131.5 110.8 116.25 109.15 100.05 110.35
L 89.5 111.6
Q 65 116.3 53.15 133.65 51.9 135.85 50.7 138.1 47.65 143.7 45.75 150 43.8 156.3 42.8 162.8 41.75 170 42 177.35 42.05 180.8 42.1 181.15 43.85 230.5 70.05 250.95 94.1 270.05 140.35 265.4 176.9 267.75 181.25 305.9 182.1 313.3 183.15 320.5 183.9 325.95 184.75 331.25 185.8 337.85 187.2 344 192.4 367.05 202.5 384.4 206.45 391.15 210.6 390.2 211.7 389.95 210.45 389.3 210.05 389.05 210.05 388.05 211.8 381.4 217.3 388.85 228.5 404.1 246.95 412.3 257.95 417.15 263.05 428.05 263.05 433.55 263.05 439.05 263.05 439.55 263.05 440.05 259.4 445.4 255.55 450.05
L 256.05 450.05
Q 273.85 442.85 285.35 429.3 285.55 429.05 286.05 429.05 300.9 437.2 309.05 452.55 311.8 457.8 317.05 461.05 318.3 457.7 316.55 447.95 314.1 434.6 324.05 428.05 328.75 426.25 332.15 427.85 332.55 428.05 333.05 428.05 339.4 434.2 339.55 447.05
L 340.05 447.05
Q 352.35 437.85 356.85 419.5 358.25 413.75 362.9 409.85 376.7 398.2 391.05 392.05 393.75 399 391.55 405.05
L 392.05 405.05
Q 409.25 391.75 411.9 362.2 412.15 359.65 413.2 356.1 415 350.1 416.65 344 419.8 332.5 424.45 317 429.1 301.45 431 289.95 432.4 281 434.95 276.4 435.9 274.65 437.55 273.4 441.05 271 445.35 269.65
L 448.2 268.9
Q 525.7 251.8 544.1 221.3 561.15 193.65 545.3 149.65 543.4 144.1 540.8 138.95 535.4 128.4 525.5 122.1
M 503.3 119.85
Q 504.3 120.05 505.25 120.3 515.85 123.25 525.25 128.9 535.85 135.15 539.8 146.85 540.3 148.25 540.8 149.65 556.95 192.25 540.7 219.25 522.9 248.05 450.05 259.7 441.2 260 438 259.4 433.95 258.65 433.05 248.05 433.3 223.3 438.25 202.35 441.7 187.7 444.35 172.75 445.5 166 448.05 162.05 470.95 161.65 476.75 179.5 477.45 181.65 478.75 184.75 486.15 202.45 488.05 226.05 499.4 201.45 487 177.6 483.55 171.05 481.05 163.05 521.3 171.3 519.55 222.05
L 520.05 222.05
Q 528.5 195.35 517.75 171.65 510.15 154.95 490.75 150.3 472.85 146 458 150.9 453.05 152.55 448.05 154.05 446.4 137.25 442.2 123 442.05 122.55 442.05 122.05 476.5 113.35 503.3 119.85
M 428.65 167.8
Q 426.65 179.65 421.8 189.45 416.75 199.75 410.05 208.05 426.45 237.7 421.8 286.2 420 305 415.15 320.5 411.05 333.4 404.85 344 393.6 363.2 375.35 374.95 358.1 386.1 333.1 389.3 288.65 395.05 252.3 383.3 217.65 372.1 199.5 344 192.65 333.45 188.15 320.5 181.35 301.05 179.8 276.15 178.8 260.3 180.45 245 182.05 229.55 188.05 219.05 166.95 201.15 162.1 167.05 162.05 166.55 162.05 166.05 162.05 165.55 162.05 165.05 162.05 160.55 162.05 156.05 162.05 155.55 162.05 155.05 162.05 152.05 162.05 149.05 176.8 84.35 253 87.3 267.75 87.85 279.3 92.45 291.3 97.3 299.05 106.05 324.4 78.15 373.95 84.85 393.2 87.45 406.3 96.65 437.05 118.3 428.65 167.8
M 58.4 140.5
Q 61.1 137.5 63.95 134.9 89.05 113.6 141.95 119.9 148 120.6 154.05 122.05 150.85 134.35 149.1 153.05 149.05 153.55 149.05 154.05 127.7 144.7 101.45 151.6 91.7 154.2 85.2 161.2 66.35 181.65 75.05 216.05 76.05 220.05 77.05 224.05 74.05 174.45 114.1 163.2 114.55 163.05 115.05 163.05 102.1 182.05 104.3 209.95 105 218.6 108.05 226.05 110.95 182.45 138.05 163.45 140.05 162.05 143.05 162.05 145.55 162.05 148.05 162.05 151.45 172.15 153.55 183.95 159.65 218.45 167.05 252.05 160.2 256.85 148.15 258.9 147.85 258.9 147.55 258.95 97.95 267.65 72.5 247.85 47.8 228.2 46.1 181.15 46.05 180.8 46 177.35 45.85 170.2 47.1 163.2 48.3 156.7 51.35 150.75 54.2 145.2 58.4 140.5 Z"/>

<path fill="#FFD24C" stroke="none" d="
M 63.95 134.9
Q 61.1 137.5 58.4 140.5 54.2 145.2 51.35 150.75 48.3 156.7 47.1 163.2 45.85 170.2 46 177.35 46.05 180.8 46.1 181.15 47.8 228.2 72.5 247.85 97.95 267.65 147.55 258.95 147.85 258.9 148.15 258.9 160.2 256.85 167.05 252.05 159.65 218.45 153.55 183.95 151.45 172.15 148.05 162.05 145.55 162.05 143.05 162.05 140.05 162.05 138.05 163.45 110.95 182.45 108.05 226.05 105 218.6 104.3 209.95 102.1 182.05 115.05 163.05 114.55 163.05 114.1 163.2 74.05 174.45 77.05 224.05 76.05 220.05 75.05 216.05 66.35 181.65 85.2 161.2 91.7 154.2 101.45 151.6 127.7 144.7 149.05 154.05 149.05 153.55 149.1 153.05 150.85 134.35 154.05 122.05 148 120.6 141.95 119.9 89.05 113.6 63.95 134.9
M 421.8 189.45
Q 426.65 179.65 428.65 167.8 437.05 118.3 406.3 96.65 393.2 87.45 373.95 84.85 324.4 78.15 299.05 106.05 291.3 97.3 279.3 92.45 267.75 87.85 253 87.3 176.8 84.35 162.05 149.05 162.05 152.05 162.05 155.05 162.05 155.55 162.05 156.05 162.05 160.55 162.05 165.05 162.05 165.55 162.05 166.05 162.05 166.55 162.1 167.05 166.95 201.15 188.05 219.05 182.05 229.55 180.45 245 178.8 260.3 179.8 276.15 181.35 301.05 188.15 320.5 192.65 333.45 199.5 344 217.65 372.1 252.3 383.3 288.65 395.05 333.1 389.3 358.1 386.1 375.35 374.95 393.6 363.2 404.85 344 411.05 333.4 415.15 320.5 420 305 421.8 286.2 426.45 237.7 410.05 208.05 416.75 199.75 421.8 189.45
M 505.25 120.3
Q 504.3 120.05 503.3 119.85 476.5 113.35 442.05 122.05 442.05 122.55 442.2 123 446.4 137.25 448.05 154.05 453.05 152.55 458 150.9 472.85 146 490.75 150.3 510.15 154.95 517.75 171.65 528.5 195.35 520.05 222.05
L 519.55 222.05
Q 521.3 171.3 481.05 163.05 483.55 171.05 487 177.6 499.4 201.45 488.05 226.05 486.15 202.45 478.75 184.75 477.45 181.65 476.75 179.5 470.95 161.65 448.05 162.05 445.5 166 444.35 172.75 441.7 187.7 438.25 202.35 433.3 223.3 433.05 248.05 433.95 258.65 438 259.4 441.2 260 450.05 259.7 522.9 248.05 540.7 219.25 556.95 192.25 540.8 149.65 540.3 148.25 539.8 146.85 535.85 135.15 525.25 128.9 515.85 123.25 505.25 120.3 Z"/>
</g>

<g id="Layer0_1_MEMBER_0_FILL">
<path fill="#323741" stroke="none" d="
M 270.05 274.45
Q 271.4 277.8 274.2 279.95 284.4 287.95 298.05 285.45 295.2 279.5 290.2 274.95 280.55 266.2 270.05 274.45
M 332.7 284.05
Q 338.15 282.75 339.1 277.2 339.4 275.3 339.55 273.45 336.3 269.2 331.3 270.1 326.6 271.05 322.8 274.15
L 313.05 283.45 313.05 284.45
Q 322.8 286.55 332.7 284.05 Z"/>
</g>

<g id="Layer0_1_MEMBER_1_FILL">
<path fill="#323741" stroke="none" d="
M 188.05 152.05
L 188.05 153.05
Q 193.05 150.05 200.25 143.25 207.5 136.5 217.5 133.7 242.2 126.8 258.05 138.05 251.85 133.25 245 129.15 238 125.05 228.95 124.25 194.65 121.2 188.05 152.05
M 400.55 140.3
Q 395.55 129.55 383.7 126.4 355.25 118.75 337.05 137.05 338.8 138.75 341.4 136.5 346.85 131.85 355.05 131.65 389.9 130.75 406.05 155.05 403.8 147.3 400.55 140.3 Z"/>
</g>

<g id="Layer0_2_FILL">
<path fill="#06858C" stroke="none" d="
M 359.15 166.6
L 357.1 165.5 321.05 168.6 321.6 168.5
Q 315.35 168.95 294.95 168.95 268.1 168.95 211.4 165
L 210.4 166.25 194.15 167.6 185.75 169.2 182.1 170.3
Q 157.25 177.9 155.1 203.85 155.05 204.35 154.25 209.25 150.9 209.1 149 209.55 145.75 213.35 149 216.9
L 153.25 216.9
Q 153.1 235.15 160.6 250.95 167.95 267 184.4 273.3 210.25 283.15 232.05 271.6 242.4 265.85 252.35 257.15 262.25 248.45 272.6 235.35 282.9 222.25 284.85 206 285 192.75 290.25 184.85 295.05 179.5 303.75 179.55 310.9 179.65 313.35 185.25 315.75 190.8 317.05 196.85 320.45 211 327.25 223.95 334.85 238.5 346.6 250.15 357.95 261.3 371.35 269.95 376.75 273.55 382.55 275.3 383.75 275.65 384.95 276.05 391 277.5 397.15 277.25 404.25 276.9 410.6 274.65 417.1 272.4 422.8 268.85 428.4 265.1 432.25 259.7 433.35 258.35 434.25 257 435.8 254.6 438.05 250 440.25 245.45 442.25 237.2 444.15 228.95 444.75 220.5
L 445.15 215.8 449 215.7
Q 449.55 214.4 449.85 213.1 450.5 210.4 448.7 208.7
L 444.8 208.7
Q 444.15 201.85 442.1 194.25 440 186.6 435.1 182.25 430.25 177.85 427 175.8 418.2 170.7 408.3 168.15 393.2 163.95 378.3 164.95
L 359.15 166.6
M 341.15 169.8
L 328.25 177.35
Q 323.7 180.5 320.05 188.6 318.9 186.6 318 184.6 317 182.6 313.15 179.7 309.3 176.8 299.65 176.55 295.2 177.35 290.55 179.7 286.5 182.2 284.55 187.3 284.15 187.1 283.9 186.8 282.05 184.05 280.3 181.7 277.35 177.85 273.25 175.4 268.9 172.8 263.7 170.8
L 263.25 170.2
Q 290 172.8 316.9 171.7 328.95 171.35 341.15 169.8 Z"/>
</g>
</defs>

<g transform="matrix( 1, 0, 0, 1, 0,0) ">
<use xlink:href="#Layer0_0_FILL"/>
</g>

<g transform="matrix( 1.105682373046875, 0, 0, 1.105682373046875, -28.85,27.3) ">
<use xlink:href="#Layer0_1_FILL"/>
</g>

<g transform="matrix( 1.105682373046875, 0, 0, 1.105682373046875, -28.85,27.3) ">
<use xlink:href="#Layer0_1_MEMBER_0_FILL"/>
</g>

<g transform="matrix( 1.105682373046875, 0, 0, 1.105682373046875, -28.85,27.3) ">
<use xlink:href="#Layer0_1_MEMBER_1_FILL"/>
</g>

<g transform="matrix( 1.105682373046875, 0, 0, 1.105682373046875, -28.85,27.3) ">
<use xlink:href="#Layer0_2_FILL"/>
</g>
</svg>
